PathFileType        4      (X/Y/Z)      Walking.trc         
DataRate	CameraRate	NumFrames	NumMarkers	Units	OrigDataRate	OrigDataStartFrame	OrigNumFrames
100.0	100.0	15	18	mm	100.0	39	97
Frame#	Time	T2			T10			MANU			LASI			RASI			SACR			LTHI			LKNE			LTIB			LANK			LHEE			LTOE			RTHI			RKNE			RTIB			RANK			RHEE			RTOE			
		X1	Y1	Z1	X2	Y2	Z2	X3	Y3	Z3	X4	Y4	Z4	X5	Y5	Z5	X6	Y6	Z6	X7	Y7	Z7	X8	Y8	Z8	X9	Y9	Z9	X10	Y10	Z10	X11	Y11	Z11	X12	Y12	Z12	X13	Y13	Z13	X14	Y14	Z14	X15	Y15	Z15	X16	Y16	Z16	X17	Y17	Z17	X18	Y18	Z18	
39	3.62	447.05684165	1160.68087642	84.87492396	409.13905517	969.7631615	85.7233061	558.42203645	1083.73031741	82.35809943	551.55745646	759.17050849	6.37518691	532.32556468	768.64253734	218.35975635	422.27857069	798.22582766	94.22075363	669.53513031	492.73135935	-48.85235177	701.16770849	428.55630271	-8.14556177	623.35987272	213.48262695	-77.18901937	571.36209465	136.59804085	-50.22516626	506.14906393	136.49810638	-47.2711461	643.40334705	52.29123875	14.84064509	490.45429564	447.10278092	249.214996	466.39164344	372.13401881	199.29940453	379.22213047	155.96145466	251.63985647	314.91087891	71.10538309	224.90336795	255.59092706	72.48544878	220.81560341	391.88658323	26.81349792	129.30433478	
40	3.63	457.39889855	1158.50357223	84.34057523	418.931862	967.72101123	85.02873844	568.60147222	1081.12199527	81.54525219	561.92061554	757.20350697	5.76470866	542.30900939	766.88876529	217.86093011	432.44416806	795.78281252	93.3831479	681.03612389	491.65804347	-48.96544331	713.54562815	428.23835295	-8.05699642	646.52855155	208.80366596	-76.16979721	598.97802656	129.41321581	-48.59953164	533.85024483	125.51078762	-45.28660901	676.47710514	49.90322309	15.8197159	497.85237119	445.38916044	248.69583567	472.36203539	370.58874305	198.80501872	381.50264902	155.85529785	251.34196716	315.7541635	72.14916876	224.73676186	256.44851368	74.45460099	220.61684723	392.00294661	26.7865183	129.20304708	
41	3.64	467.78512424	1156.210913	83.74162697	428.97506882	965.53154948	84.250512	578.89149355	1078.53447498	80.67614229	572.56716268	755.16679264	5.02786341	552.71426786	765.08710208	217.21520692	442.95717407	793.27083492	92.49221542	691.97224082	489.6847437	-48.84424711	725.08435668	426.9463193	-7.67033416	668.92007005	203.40405351	-74.75531067	625.92190064	121.69455264	-46.53443512	561.11287053	114.0682769	-42.90277942	708.44948021	47.28401795	17.51053858	505.66320509	443.6441813	248.16173766	478.71884392	369.03648619	198.31635931	384.0273249	155.91388991	251.12158842	316.79958206	73.4131475	224.63979032	257.53961482	76.73216788	220.51164584	392.18254002	26.7708804	129.09430447	
42	3.65	478.22877754	1153.8142265	83.07090049	439.29339089	963.20072007	83.38885698	589.31047423	1075.98515498	79.74311891	583.52288101	753.05097241	4.16899488	563.54379283	763.21876259	216.42497356	453.82919225	790.70645205	91.54379727	702.46626055	486.84124724	-48.45362424	735.9038185	424.70861858	-6.94886201	690.2885745	197.41317493	-72.94329523	651.76892733	113.63115372	-44.06825187	587.48167195	102.43813947	-40.156832	738.85115648	44.51222755	19.84703483	513.87563822	441.8560138	247.62313466	485.47676565	367.4645816	197.84624003	386.80299538	156.14855731	250.98944047	318.05659293	74.90589412	224.61463963	258.87956593	79.33184962	220.49100618	392.43806367	26.76744122	128.98413502	
43	3.66	488.7411591	1151.32535611	82.32355179	449.9054677	960.73630689	82.44576026	599.87357743	1073.48786778	78.7415356	594.80973756	750.84747008	3.19744231	574.78821166	761.26272073	215.49818543	465.06404104	788.10781667	90.53482712	712.66232766	483.19879099	-47.76116708	746.14982526	421.59822425	-5.86187127	710.38582177	190.99757803	-70.75618141	676.06312111	105.44084723	-41.27834695	612.45122109	90.91854407	-37.13470007	767.18003539	41.67868936	22.71811745	522.47301467	440.01123003	247.08756518	492.64708776	365.85753119	197.40438658	389.83908466	156.56597835	250.9537911	319.53660802	76.62970656	224.66276105	260.48656287	82.26127202	220.54409005	392.77583564	26.7752399	128.87980094	
44	3.67	499.33108089	1148.75893582	81.49720352	460.82244967	958.15054383	81.4251687	610.59175608	1071.05498482	77.6702139	606.44359641	748.55254285	2.12762546	586.42563327	759.1998812	214.44848049	476.65675182	785.49646806	89.46411976	722.71645241	478.86978358	-46.74226832	755.98457143	417.73025757	-4.39001884	728.98182044	184.35175816	-68.24077811	698.35366241	97.36065599	-38.27617653	635.50525361	79.82515996	-33.96660406	792.93803397	38.88237995	25.97604015	531.43423075	438.09796706	246.55944513	500.23713179	364.20016201	196.99710984	393.14986401	157.16860024	251.02049765	321.25644111	78.58030419	224.78520836	262.38566559	85.5221249	220.65979079	393.19258709	26.79111032	128.78923189	
45	3.68	510.00448893	1146.13451266	80.59199762	472.04690207	955.46247438	80.33320912	621.47096065	1068.69958249	76.53172743	618.43195405	746.17099866	0.97873303	598.42159517	757.01728869	213.29491963	488.59291815	782.89884543	88.33309821	732.78452995	474.00364467	-45.38595973	765.57422152	413.25558978	-2.53100354	745.88618765	177.68540616	-65.46584903	718.23781663	89.63352588	-35.19742917	656.16583145	69.47328982	-30.81423991	815.6780295	36.22358808	29.44765486	540.73501541	436.10918223	246.0402188	508.25024469	362.48092443	196.62728498	396.75698548	157.95493535	251.19311841	323.24229653	80.74625491	224.98305056	264.61340047	89.10990778	220.8287067	393.67302902	26.80952717	128.72040273	
46	3.69	520.76426576	1143.47827293	79.61057349	483.5721388	952.69978536	79.17837028	632.51162564	1066.43742783	75.33248915	630.77193244	743.71918779	-0.22599242	610.72974377	754.71198372	212.0613315	500.84849182	780.34733575	87.14634421	743.00835833	468.77849248	-43.70076996	775.07435414	408.3507591	-0.30480213	760.9669941	171.20806664	-62.517888	735.40496931	82.49158505	-32.18819452	674.04622352	60.1555401	-27.85113569	835.05541107	33.79510119	32.94835412	550.34933633	434.04567942	245.52895002	516.68633314	360.694978	196.29471234	400.69197653	158.91961057	251.47307797	325.53376555	83.10805722	225.25781772	267.22231159	93.01307483	221.04535546	394.18916792	26.82280699	128.68075969	
47	3.7	531.61022473	1140.8241521	78.55797387	495.38206726	949.89987771	77.97157881	643.70848476	1064.28855391	74.08263629	643.44875147	741.22688717	-1.46034632	623.29329842	752.2941143	210.77526446	513.39008758	777.88069899	85.91187107	753.5006458	463.38898103	-41.71960077	784.61457368	403.20501621	2.24242418	774.1640098	165.11255265	-59.49554218	749.67483312	76.13710976	-29.38904292	688.89909277	52.11669587	-25.23945636	850.87584202	31.6728199	36.29800153	560.25089129	431.91857082	245.0233168	525.54288437	358.8467102	195.99687229	404.99830745	160.05311564	251.85984228	328.18714428	85.63700548	225.61186031	270.28459326	97.21153059	221.31033209	394.70240045	26.82177592	128.67672028	
48	3.71	542.53928915	1138.21416298	77.44147961	507.45158004	947.11000687	76.72610307	655.05073719	1062.27822865	72.79571805	656.43485967	738.73779216	-2.69657432	636.04728821	749.78895003	209.46657401	526.17581143	775.54376758	84.64105085	764.33059299	458.03130306	-39.50250226	794.28410114	398.00582738	5.03666818	785.4939972	159.55890446	-56.50318905	761.02252705	70.72348669	-26.91953617	700.65067142	45.52905787	-23.10766472	863.12937994	29.90765427	39.33738183	570.41469758	429.75086243	244.52087453	534.81637057	356.9513777	195.73000721	409.73262282	161.34130368	252.3510425	331.27734739	88.29420333	226.04845488	273.89382625	101.67464337	221.6319861	395.16927175	26.79696965	128.7131976	
49	3.72	553.54583124	1135.69785608	76.27037646	519.74747661	944.38641962	75.45723765	666.52255617	1060.43717955	71.48820302	669.68983869	736.30847221	-3.90702277	648.92147285	747.23752559	208.16570266	539.15657262	773.38638897	83.34817802	775.51213662	452.88711029	-37.13632283	804.12046221	392.92459568	7.97744917	795.0469525	154.6610673	-53.6441766	769.58457058	66.3394277	-24.8658378	709.4128859	40.47276739	-21.53354098	872.00204704	28.52051891	41.94293705	580.81881245	427.57792095	244.02037732	544.50389143	355.03564889	195.49038524	414.96477438	162.76481863	252.94249432	334.89779085	91.03026954	226.57150652	278.16390294	106.35916644	222.02713226	395.55140728	26.74034246	128.7930782	
50	3.73	564.62213219	1133.33091801	75.05566096	532.22984706	941.7925255	74.18175331	678.10390182	1058.80101916	70.17883236	683.16112559	734.00582213	-5.0659228	661.84376978	744.69576407	206.90174331	552.27778884	771.46166164	82.04970977	786.99713369	448.10866714	-34.73056999	814.10334023	388.10457553	10.94269986	802.97379882	150.47857915	-51.01422135	775.64308358	63.00000045	-23.27360041	715.46922984	36.92589228	-20.53599925	877.85978506	27.50162296	44.03725255	591.44619226	425.44669418	243.52291184	554.60487754	353.13695238	195.27554291	420.77640981	164.29872303	253.62808813	339.15785592	93.78633044	227.18478422	283.22449509	111.2076345	222.52034172	395.8295075	26.6473393	128.9166336	
51	3.74	575.75891869	1131.17300966	73.80969751	544.85380599	939.3962534	72.91713598	689.77157208	1057.40890864	68.88785281	696.78552802	731.90323107	-6.15118164	674.74392306	742.23208787	205.70041607	565.48135552	769.823596	80.76327861	798.67545317	443.80771532	-32.40943048	824.15513405	383.65280785	13.79715672	809.46768894	147.01512844	-48.69544622	779.59015748	60.64723255	-22.14720811	719.23602243	34.76774866	-20.07714512	881.20592634	26.81421848	45.59327678	602.28663114	423.4137015	243.03261562	565.12266058	351.30168536	195.08528529	427.25804685	165.9126437	254.39956273	344.17788888	96.49677283	227.89074939	289.21288471	116.14788596	223.14149392	396.02044284	26.51904238	129.08095148	
52	3.75	586.94593356	1129.28502978	72.54584228	557.57143633	937.26683396	71.6806763	701.50040454	1056.30158291	67.63616922	710.49144963	730.07586793	-7.14603204	687.55708272	739.92369833	204.58213021	578.7077328	768.52439672	79.50661091	810.3830291	440.05009083	-30.30066348	834.14874669	379.63729668	16.4036171	814.74236654	144.22469578	-46.75151366	781.87912584	59.16106316	-21.45502671	721.20679741	33.79615257	-20.073658	882.62002916	26.40190785	46.63156154	613.33862272	421.54196803	242.55682213	576.06571857	349.58248791	194.92225284	434.50476696	167.57172274	255.24621337	350.08208015	99.09393785	228.68915153	296.26260499	121.09431392	223.92150444	396.19548671	26.36396986	129.27958815	
53	3.76	598.17250529	1127.72604546	71.27805077	570.33378948	935.47129916	70.48850164	713.2645296	1055.51893028	66.44446058	724.20169956	728.59560763	-8.04036943	700.22693905	737.85186614	203.56033877	591.89800838	767.61160076	78.29649638	821.91751928	436.85706616	-28.52282136	843.92180266	376.08962761	18.63576755	819.01150467	142.02430078	-45.22423772	782.97247477	58.37882281	-21.13904072	721.89154698	33.75587907	-20.41456719	882.69055964	26.19787702	47.21139569	624.61088482	419.89721793	242.10558831	587.44842679	348.03491565	194.79194077	442.61086182	169.23855249	256.15461907	356.98993962	101.51449983	229.57562854	304.49004555	125.95124537	224.88647313	396.49674716	26.19901893	129.50271651	
